<svg xmlns="http://www.w3.org/2000/svg" viewBox="0 0 60 60" width="60" height="60">
  <rect width="60" height="60" rx="14" fill="#0D1B2A"/>
  <rect x="1" y="1" width="58" height="58" rx="13" fill="none" stroke="#F5C518" stroke-width="1.6"/>
  <circle cx="30" cy="30" r="24" fill="none" stroke="#F5C518" stroke-width="0.5" stroke-opacity="0.18"/>
  <circle cx="30"    cy="6.5"  r="2.2" fill="#F5C518" fill-opacity="1.00"/>
  <circle cx="41.77" cy="9.8"  r="2.2" fill="#F5C518" fill-opacity="0.90"/>
  <circle cx="50.7"  cy="18.3" r="2.2" fill="#F5C518" fill-opacity="0.78"/>
  <circle cx="54"    cy="30"   r="2.2" fill="#F5C518" fill-opacity="0.65"/>
  <circle cx="50.7"  cy="41.7" r="2.2" fill="#F5C518" fill-opacity="0.53"/>
  <circle cx="41.77" cy="50.2" r="2.2" fill="#F5C518" fill-opacity="0.43"/>
  <circle cx="30"    cy="53.5" r="2.2" fill="#F5C518" fill-opacity="0.35"/>
  <circle cx="18.23" cy="50.2" r="2.2" fill="#F5C518" fill-opacity="0.43"/>
  <circle cx="9.3"   cy="41.7" r="2.2" fill="#F5C518" fill-opacity="0.53"/>
  <circle cx="6"     cy="30"   r="2.2" fill="#F5C518" fill-opacity="0.65"/>
  <circle cx="9.3"   cy="18.3" r="2.2" fill="#F5C518" fill-opacity="0.78"/>
  <path d="M30 12 L44 18 L44 33 Q44 46 30 51 Q16 46 16 33 L16 18 Z" fill="#1A2F4A" stroke="#F5C518" stroke-width="1.1"/>
  <line x1="24" y1="21" x2="36" y2="33" stroke="#F5C518" stroke-width="1.0" stroke-opacity="0.45" stroke-linecap="round"/>
  <line x1="36" y1="21" x2="24" y2="33" stroke="#F5C518" stroke-width="1.0" stroke-opacity="0.45" stroke-linecap="round"/>
  <text x="30" y="41" text-anchor="middle" font-family="Georgia, 'Times New Roman', serif" font-size="18" font-weight="700" fill="#F5C518">P</text>
</svg>
